<svg aria-hidden="true" style="position:absolute;width:0;height:0;overflow:hidden" xmlns="http://www.w3.org/2000/svg"><defs><symbol id="facebook" viewBox="0 0 20 20"><path d="M13.331 3.321h1.826V.141A23.64 23.64 0 0 0 12.497 0C9.865 0 8.061 1.656 8.061 4.699V7.5H5.156v3.555h2.905V20h3.562v-8.944h2.787l.442-3.555h-3.231V5.052c.001-1.027.277-1.731 1.709-1.731z"/></symbol><symbol id="twitter" viewBox="0 0 20 20"><path d="M20 3.799a8.557 8.557 0 0 1-2.363.648 4.08 4.08 0 0 0 1.804-2.266 8.19 8.19 0 0 1-2.6.992 4.099 4.099 0 0 0-7.092 2.803c0 .325.027.638.095.935-3.409-.166-6.425-1.8-8.451-4.289a4.104 4.104 0 0 0 1.26 5.48A4.049 4.049 0 0 1 .8 7.597v.045a4.12 4.12 0 0 0 3.285 4.029 4.107 4.107 0 0 1-1.075.135c-.263 0-.527-.015-.776-.07.531 1.624 2.039 2.818 3.831 2.856a8.24 8.24 0 0 1-5.084 1.749A7.72 7.72 0 0 1 0 16.285a11.545 11.545 0 0 0 6.29 1.84c7.545 0 11.67-6.25 11.67-11.667 0-.181-.006-.356-.015-.53A8.16 8.16 0 0 0 20 3.799z"/></symbol><symbol id="instagram" viewBox="0 0 20 20"><path d="M17 1H3c-1.1 0-2 .9-2 2v14c0 1.101.9 2 2 2h14c1.1 0 2-.899 2-2V3c0-1.1-.9-2-2-2zM9.984 15.523a5.539 5.539 0 0 0 5.538-5.539c0-.338-.043-.664-.103-.984H17v7.216a.69.69 0 0 1-.693.69H3.693a.69.69 0 0 1-.693-.69V9h1.549c-.061.32-.104.646-.104.984a5.54 5.54 0 0 0 5.539 5.539zM6.523 9.984c0-1.912 1.55-3.461 3.462-3.461a3.461 3.461 0 1 1 0 6.923 3.461 3.461 0 0 1-3.462-3.462zM16.307 6h-1.615A.694.694 0 0 1 14 5.308V3.691c0-.382.31-.691.691-.691h1.615c.384 0 .694.309.694.691v1.616c0 .381-.31.693-.693.693z"/></symbol><symbol id="pinterest" viewBox="0 0 20 28"><path d="M0 9.328C0 3.562 5.281 0 10.625 0 15.531 0 20 3.375 20 8.547c0 4.859-2.484 10.25-8.016 10.25-1.313 0-2.969-.656-3.609-1.875-1.188 4.703-1.094 5.406-3.719 9L4.437 26l-.141-.156c-.094-.984-.234-1.953-.234-2.938 0-3.187 1.469-7.797 2.188-10.891-.391-.797-.5-1.766-.5-2.641 0-1.578 1.094-3.578 2.875-3.578 1.313 0 2.016 1 2.016 2.234 0 2.031-1.375 3.938-1.375 5.906 0 1.344 1.109 2.281 2.406 2.281 3.594 0 4.703-5.187 4.703-7.953 0-3.703-2.625-5.719-6.172-5.719-4.125 0-7.313 2.969-7.313 7.156 0 2.016 1.234 3.047 1.234 3.531 0 .406-.297 1.844-.812 1.844-.078 0-.187-.031-.266-.047-2.234-.672-3.047-3.656-3.047-5.703z"/></symbol><symbol id="youtube" viewBox="0 0 28 28"><path d="m11.109 17.625 7.562-3.906-7.562-3.953v7.859zM14 4.156c5.891 0 9.797.281 9.797.281.547.063 1.75.063 2.812 1.188 0 0 .859.844 1.109 2.781.297 2.266.281 4.531.281 4.531v2.125s.016 2.266-.281 4.531c-.25 1.922-1.109 2.781-1.109 2.781-1.062 1.109-2.266 1.109-2.812 1.172 0 0-3.906.297-9.797.297-7.281-.063-9.516-.281-9.516-.281-.625-.109-2.031-.078-3.094-1.188 0 0-.859-.859-1.109-2.781C-.016 17.327 0 15.062 0 15.062v-2.125s-.016-2.266.281-4.531C.531 6.469 1.39 5.625 1.39 5.625 2.452 4.5 3.656 4.5 4.202 4.437c0 0 3.906-.281 9.797-.281z"/></symbol></defs></svg>